<svg id="visual" viewBox="0 0 900 600" width="900" height="600" xmlns="http://www.w3.org/2000/svg" xmlns:xlink="http://www.w3.org/1999/xlink" version="1.1"><path d="M0 49L225 49L450 67L675 49L900 67L900 0L675 0L450 0L225 0L0 0Z" fill="#003c66"></path><path d="M0 115L225 115L450 133L675 115L900 133L900 65L675 47L450 65L225 47L0 47Z" fill="#004871"></path><path d="M0 277L225 241L450 247L675 277L900 277L900 131L675 113L450 131L225 113L0 113Z" fill="#00557b"></path><path d="M0 319L225 295L450 295L675 325L900 325L900 275L675 275L450 245L225 239L0 275Z" fill="#006285"></path><path d="M0 355L225 331L450 331L675 355L900 355L900 323L675 323L450 293L225 293L0 317Z" fill="#006f8e"></path><path d="M0 463L225 469L450 481L675 469L900 475L900 353L675 353L450 329L225 329L0 353Z" fill="#007b96"></path><path d="M0 493L225 493L450 505L675 505L900 499L900 473L675 467L450 479L225 467L0 461Z" fill="#00889c"></path><path d="M0 541L225 541L450 541L675 541L900 535L900 497L675 503L450 503L225 491L0 491Z" fill="#00959f"></path><path d="M0 571L225 571L450 571L675 577L900 571L900 533L675 539L450 539L225 539L0 539Z" fill="#00a2a0"></path><path d="M0 601L225 601L450 601L675 601L900 601L900 569L675 575L450 569L225 569L0 569Z" fill="#1eae9e"></path></svg>